<svg version="1.1" xmlns="http://www.w3.org/2000/svg" viewBox="0 0 1541.660537950321 1280.4073102172654" width="1541.660537950321" height="1280.4073102172654" filter="invert(93%) hue-rotate(180deg)">
  <!-- svg-source:excalidraw -->
  
  <defs>
    <style class="style-fonts">
      @font-face {
        font-family: "Virgil";
        src: url("https://excalidraw.com/Virgil.woff2");
      }
      @font-face {
        font-family: "Cascadia";
        src: url("https://excalidraw.com/Cascadia.woff2");
      }
      @font-face {
        font-family: "Assistant";
        src: url("https://excalidraw.com/Assistant-Regular.woff2");
      }
    </style>
    
  </defs>
  <rect x="0" y="0" width="1541.660537950321" height="1280.4073102172654" fill="#ffffff"></rect><g stroke-linecap="round" transform="translate(659.8569955902908 406.16488417425114) rotate(0 156.38707891088688 143.81237987246686)"><path d="M0 0 C108.86 2.2, 216.2 2.95, 312.77 0 M0 0 C86.9 1.13, 172.9 0.69, 312.77 0 M312.77 0 C310.77 76.73, 310.82 150.99, 312.77 287.62 M312.77 0 C313.49 87.05, 313.29 176.32, 312.77 287.62 M312.77 287.62 C223 288.95, 135.98 290.11, 0 287.62 M312.77 287.62 C198.8 289.13, 84.87 290.1, 0 287.62 M0 287.62 C2.01 208.68, -0.61 128.75, 0 0 M0 287.62 C1.01 195.82, 0.81 103.23, 0 0" stroke="#1e1e1e" stroke-width="2" fill="none"></path></g><g transform="translate(704.6569833832596 416.3648506049152) rotate(0 44.059959411621094 12.5)"><text x="0" y="0" font-family="Virgil, Segoe UI Emoji" font-size="20px" fill="#1e1e1e" text-anchor="start" style="white-space: pre;" direction="ltr" dominant-baseline="text-before-edge">encuesta</text></g><g transform="translate(678.2570200043533 463.5648933295246) rotate(0 25.619979858398438 12.5)"><text x="0" y="0" font-family="Virgil, Segoe UI Emoji" font-size="20px" fill="#1e1e1e" text-anchor="start" style="white-space: pre;" direction="ltr" dominant-baseline="text-before-edge">PK id</text></g><g transform="translate(710.2570200043533 489.96488722600895) rotate(0 78.51992797851562 12.5)"><text x="0" y="0" font-family="Virgil, Segoe UI Emoji" font-size="20px" fill="#1e1e1e" text-anchor="start" style="white-space: pre;" direction="ltr" dominant-baseline="text-before-edge">token_encuesta</text></g><g transform="translate(711.8997029428172 521.6938988337494) rotate(0 31.389968872070312 12.5)"><text x="0" y="0" font-family="Virgil, Segoe UI Emoji" font-size="20px" fill="#1e1e1e" text-anchor="start" style="white-space: pre;" direction="ltr" dominant-baseline="text-before-edge">nombre</text></g><g stroke-linecap="round"><g transform="translate(661.4570322113846 450.7648445013996) rotate(0 154.2883305665822 -1.8973726221452694)"><path d="M0 0 C99.9 -1.23, 199.79 -2.46, 308.58 -3.79 M0 0 C74.6 -0.92, 149.21 -1.83, 308.58 -3.79" stroke="#1e1e1e" stroke-width="2" fill="none"></path></g></g><mask></mask><g transform="translate(713.5711727312514 551.780227503026) rotate(0 38.59996032714844 12.5)"><text x="0" y="0" font-family="Virgil, Segoe UI Emoji" font-size="20px" fill="#1e1e1e" text-anchor="start" style="white-space: pre;" direction="ltr" dominant-baseline="text-before-edge">empresa</text></g><g transform="translate(715.2426425196857 586.8809655376051) rotate(0 32.69995880126953 12.5)"><text x="0" y="0" font-family="Virgil, Segoe UI Emoji" font-size="20px" fill="#1e1e1e" text-anchor="start" style="white-space: pre;" direction="ltr" dominant-baseline="text-before-edge">puesto</text></g><g transform="translate(712.7354218967171 620.3102337837499) rotate(0 58.849952697753906 12.5)"><text x="0" y="0" font-family="Virgil, Segoe UI Emoji" font-size="20px" fill="#1e1e1e" text-anchor="start" style="white-space: pre;" direction="ltr" dominant-baseline="text-before-edge">created_at</text></g><g transform="translate(715.242610639051 655.4110036989636) rotate(0 60.359947204589844 12.5)"><text x="0" y="0" font-family="Virgil, Segoe UI Emoji" font-size="20px" fill="#1e1e1e" text-anchor="start" style="white-space: pre;" direction="ltr" dominant-baseline="text-before-edge">updated_at</text></g><g transform="translate(899.6619028992327 491.39903441703495) rotate(0 27.249969482421875 12.5)"><text x="0" y="0" font-family="Virgil, Segoe UI Emoji" font-size="20px" fill="#1e1e1e" text-anchor="start" style="white-space: pre;" direction="ltr" dominant-baseline="text-before-edge">string</text></g><g transform="translate(895.8766072862381 466.55965078084637) rotate(0 12.509986877441406 12.5)"><text x="0" y="0" font-family="Virgil, Segoe UI Emoji" font-size="20px" fill="#1e1e1e" text-anchor="start" style="white-space: pre;" direction="ltr" dominant-baseline="text-before-edge">int</text></g><g transform="translate(897.6654233186227 524.3414425423889) rotate(0 27.249969482421875 12.5)"><text x="0" y="0" font-family="Virgil, Segoe UI Emoji" font-size="20px" fill="#1e1e1e" text-anchor="start" style="white-space: pre;" direction="ltr" dominant-baseline="text-before-edge">string</text></g><g transform="translate(894.6706277868941 549.2978181040821) rotate(0 27.249969482421875 12.5)"><text x="0" y="0" font-family="Virgil, Segoe UI Emoji" font-size="20px" fill="#1e1e1e" text-anchor="start" style="white-space: pre;" direction="ltr" dominant-baseline="text-before-edge">string</text></g><g transform="translate(895.6689437380132 585.2350217611648) rotate(0 27.249969482421875 12.5)"><text x="0" y="0" font-family="Virgil, Segoe UI Emoji" font-size="20px" fill="#1e1e1e" text-anchor="start" style="white-space: pre;" direction="ltr" dominant-baseline="text-before-edge">string</text></g><g transform="translate(896.667183528318 616.1809883863158) rotate(0 23.47998046875 12.5)"><text x="0" y="0" font-family="Virgil, Segoe UI Emoji" font-size="20px" fill="#1e1e1e" text-anchor="start" style="white-space: pre;" direction="ltr" dominant-baseline="text-before-edge">date</text></g><g transform="translate(895.668943738013 650.1215982215675) rotate(0 23.47998046875 12.5)"><text x="0" y="0" font-family="Virgil, Segoe UI Emoji" font-size="20px" fill="#1e1e1e" text-anchor="start" style="white-space: pre;" direction="ltr" dominant-baseline="text-before-edge">date</text></g><g stroke-linecap="round"><g transform="translate(671.0615256023657 654.1146716240085) rotate(0 142.7504796370082 -1.4974168060679744)"><path d="M0 0 C110.17 -1.16, 220.34 -2.31, 285.5 -2.99 M0 0 C112.72 -1.18, 225.43 -2.36, 285.5 -2.99" stroke="#1e1e1e" stroke-width="1" fill="none"></path></g></g><mask></mask><g stroke-linecap="round"><g transform="translate(669.0650079413488 618.1774298865187) rotate(0 144.24785836266915 -1.9964795806097868)"><path d="M0 0 C57.81 -0.8, 115.62 -1.6, 288.5 -3.99 M0 0 C74.89 -1.04, 149.78 -2.07, 288.5 -3.99" stroke="#1e1e1e" stroke-width="1" fill="none"></path></g></g><mask></mask><g stroke-linecap="round"><g transform="translate(675.0545228439926 583.238504100148) rotate(0 139.75570314548287 -1.9965176610169237)"><path d="M0 0 C69.85 -1, 139.7 -2, 279.51 -3.99 M0 0 C104.81 -1.5, 209.61 -2.99, 279.51 -3.99" stroke="#1e1e1e" stroke-width="1" fill="none"></path></g></g><mask></mask><g stroke-linecap="round"><g transform="translate(675.0545228439926 556.2856108774376) rotate(0 143.2496566527712 -1.4973977658644344)"><path d="M0 0 C59.18 -0.62, 118.35 -1.24, 286.5 -2.99 M0 0 C57.69 -0.6, 115.39 -1.21, 286.5 -2.99" stroke="#1e1e1e" stroke-width="1" fill="none"></path></g></g><mask></mask><g stroke-linecap="round"><g transform="translate(672.0597653926709 521.346685091067) rotate(0 143.2496566527712 -1.4973977658644344)"><path d="M0 0 C79.62 -0.83, 159.25 -1.66, 286.5 -2.99 M0 0 C92.14 -0.96, 184.28 -1.93, 286.5 -2.99" stroke="#1e1e1e" stroke-width="1" fill="none"></path></g></g><mask></mask><g stroke-linecap="round"><g transform="translate(672.0597653926709 494.3937918683567) rotate(0 143.2496566527712 -1.4973977658644344)"><path d="M0 0 C78.12 -0.82, 156.25 -1.63, 286.5 -2.99 M0 0 C93.17 -0.97, 186.34 -1.95, 286.5 -2.99" stroke="#1e1e1e" stroke-width="1" fill="none"></path></g></g><mask></mask><g stroke-linecap="round" transform="translate(1152.1614635152328 886.4577445802702) rotate(0 156.38707891088688 110.06863250180243)"><path d="M0 0 C122.05 -1.21, 242.65 -0.03, 312.77 0 M0 0 C92.44 -0.68, 186.31 -0.83, 312.77 0 M312.77 0 C312.8 51.01, 311.24 100.7, 312.77 220.14 M312.77 0 C312.23 45.67, 312.56 92.51, 312.77 220.14 M312.77 220.14 C238.75 221.76, 162.06 222.95, 0 220.14 M312.77 220.14 C245.52 221.61, 178.7 222.12, 0 220.14 M0 220.14 C-0.55 152.45, -0.89 83.92, 0 0 M0 220.14 C0.24 156.19, 0.55 93.18, 0 0" stroke="#1e1e1e" stroke-width="2" fill="none"></path></g><g transform="translate(1196.9614513082015 896.6577110109342) rotate(0 93.65991973876953 12.5)"><text x="0" y="0" font-family="Virgil, Segoe UI Emoji" font-size="20px" fill="#1e1e1e" text-anchor="start" style="white-space: pre;" direction="ltr" dominant-baseline="text-before-edge">metrica_evaluacion</text></g><g transform="translate(1170.5614879292953 943.8577537355435) rotate(0 25.619979858398438 12.5)"><text x="0" y="0" font-family="Virgil, Segoe UI Emoji" font-size="20px" fill="#1e1e1e" text-anchor="start" style="white-space: pre;" direction="ltr" dominant-baseline="text-before-edge">PK id</text></g><g transform="translate(1202.5614879292953 970.2577476320279) rotate(0 31.389968872070312 12.5)"><text x="0" y="0" font-family="Virgil, Segoe UI Emoji" font-size="20px" fill="#1e1e1e" text-anchor="start" style="white-space: pre;" direction="ltr" dominant-baseline="text-before-edge">nombre</text></g><g transform="translate(1204.204170867759 1001.9867592397685) rotate(0 50.44994354248047 12.5)"><text x="0" y="0" font-family="Virgil, Segoe UI Emoji" font-size="20px" fill="#1e1e1e" text-anchor="start" style="white-space: pre;" direction="ltr" dominant-baseline="text-before-edge">descripcion</text></g><g stroke-linecap="round"><g transform="translate(1153.7615001363265 931.0577049074185) rotate(0 154.2883305665822 -1.8973726221452694)"><path d="M0 0 C63.12 -0.78, 126.24 -1.55, 308.58 -3.79 M0 0 C120.01 -1.48, 240.03 -2.95, 308.58 -3.79" stroke="#1e1e1e" stroke-width="2" fill="none"></path></g></g><mask></mask><g transform="translate(1205.8756406561931 1032.0730879090452) rotate(0 58.849952697753906 12.5)"><text x="0" y="0" font-family="Virgil, Segoe UI Emoji" font-size="20px" fill="#1e1e1e" text-anchor="start" style="white-space: pre;" direction="ltr" dominant-baseline="text-before-edge">created_at</text></g><g transform="translate(1207.5471104446276 1067.1738259436243) rotate(0 60.359947204589844 12.5)"><text x="0" y="0" font-family="Virgil, Segoe UI Emoji" font-size="20px" fill="#1e1e1e" text-anchor="start" style="white-space: pre;" direction="ltr" dominant-baseline="text-before-edge">updated_at</text></g><g transform="translate(1391.9663708241746 971.691894823054) rotate(0 27.249969482421875 12.5)"><text x="0" y="0" font-family="Virgil, Segoe UI Emoji" font-size="20px" fill="#1e1e1e" text-anchor="start" style="white-space: pre;" direction="ltr" dominant-baseline="text-before-edge">string</text></g><g transform="translate(1388.18107521118 946.8525111868654) rotate(0 12.509986877441406 12.5)"><text x="0" y="0" font-family="Virgil, Segoe UI Emoji" font-size="20px" fill="#1e1e1e" text-anchor="start" style="white-space: pre;" direction="ltr" dominant-baseline="text-before-edge">int</text></g><g transform="translate(1389.9698912435647 1004.6343029484079) rotate(0 27.249969482421875 12.5)"><text x="0" y="0" font-family="Virgil, Segoe UI Emoji" font-size="20px" fill="#1e1e1e" text-anchor="start" style="white-space: pre;" direction="ltr" dominant-baseline="text-before-edge">string</text></g><g transform="translate(1386.975095711836 1029.590678510101) rotate(0 23.47998046875 12.5)"><text x="0" y="0" font-family="Virgil, Segoe UI Emoji" font-size="20px" fill="#1e1e1e" text-anchor="start" style="white-space: pre;" direction="ltr" dominant-baseline="text-before-edge">date</text></g><g transform="translate(1387.9734116629552 1065.527882167184) rotate(0 27.249969482421875 12.5)"><text x="0" y="0" font-family="Virgil, Segoe UI Emoji" font-size="20px" fill="#1e1e1e" text-anchor="start" style="white-space: pre;" direction="ltr" dominant-baseline="text-before-edge">string</text></g><g stroke-linecap="round"><g transform="translate(1167.3589907689345 1063.531364506167) rotate(0 139.75570314548293 -1.9965176610169237)"><path d="M0 0 C90.08 -1.29, 180.16 -2.57, 279.51 -3.99 M0 0 C94.82 -1.35, 189.63 -2.71, 279.51 -3.99" stroke="#1e1e1e" stroke-width="1" fill="none"></path></g></g><mask></mask><g stroke-linecap="round"><g transform="translate(1167.3589907689345 1036.5784712834566) rotate(0 143.24965665277125 -1.4973977658644344)"><path d="M0 0 C69.67 -0.73, 139.35 -1.46, 286.5 -2.99 M0 0 C68.81 -0.72, 137.62 -1.44, 286.5 -2.99" stroke="#1e1e1e" stroke-width="1" fill="none"></path></g></g><mask></mask><g stroke-linecap="round"><g transform="translate(1164.3642333176128 1001.639545497086) rotate(0 143.24965665277125 -1.4973977658644344)"><path d="M0 0 C111.41 -1.16, 222.81 -2.33, 286.5 -2.99 M0 0 C111.22 -1.16, 222.44 -2.33, 286.5 -2.99" stroke="#1e1e1e" stroke-width="1" fill="none"></path></g></g><mask></mask><g stroke-linecap="round"><g transform="translate(1164.3642333176128 974.6866522743757) rotate(0 143.24965665277125 -1.4973977658644344)"><path d="M0 0 C78.72 -0.82, 157.44 -1.65, 286.5 -2.99 M0 0 C66.26 -0.69, 132.52 -1.39, 286.5 -2.99" stroke="#1e1e1e" stroke-width="1" fill="none"></path></g></g><mask></mask><g stroke-linecap="round" transform="translate(120.06894336975944 902.399024877732) rotate(0 201.01336510521503 128.25951116680585)"><path d="M0 0 C141.51 0.8, 282.32 2.71, 402.03 0 M0 0 C91.39 0.54, 183.94 0.39, 402.03 0 M402.03 0 C401.32 56.75, 400.16 111.74, 402.03 256.52 M402.03 0 C401.99 85.41, 400.89 170.72, 402.03 256.52 M402.03 256.52 C249.62 256.76, 96.82 257.56, 0 256.52 M402.03 256.52 C320.48 255.56, 237.87 255.99, 0 256.52 M0 256.52 C-1.57 174.41, 0.21 91.39, 0 0 M0 256.52 C0.13 161.6, 1.64 66.04, 0 0" stroke="#1e1e1e" stroke-width="2" fill="none"></path></g><g transform="translate(286.7351168305915 913.0928584663017) rotate(0 24.119979858398438 12.5)"><text x="0" y="0" font-family="Virgil, Segoe UI Emoji" font-size="20px" fill="#1e1e1e" text-anchor="start" style="white-space: pre;" direction="ltr" dominant-baseline="text-before-edge">tema</text></g><g transform="translate(140.77721839971838 953.6437479756133) rotate(0 25.619979858398438 12.5)"><text x="0" y="0" font-family="Virgil, Segoe UI Emoji" font-size="20px" fill="#1e1e1e" text-anchor="start" style="white-space: pre;" direction="ltr" dominant-baseline="text-before-edge">PK id</text></g><g stroke-linecap="round"><g transform="translate(121.66897999085319 947.7684509951777) rotate(0 199.29932030506006 -1.5126544024961959)"><path d="M0 0 C87.34 -0.66, 174.67 -1.33, 398.6 -3.03 M0 0 C104.98 -0.8, 209.96 -1.59, 398.6 -3.03" stroke="#1e1e1e" stroke-width="2" fill="none"></path></g></g><mask></mask><g transform="translate(454.51236073844876 993.019142142606) rotate(0 12.509986877441406 12.5)"><text x="0" y="0" font-family="Virgil, Segoe UI Emoji" font-size="20px" fill="#1e1e1e" text-anchor="start" style="white-space: pre;" direction="ltr" dominant-baseline="text-before-edge">int</text></g><g transform="translate(456.88235118284643 955.8690689876369) rotate(0 12.509986877441406 12.5)"><text x="0" y="0" font-family="Virgil, Segoe UI Emoji" font-size="20px" fill="#1e1e1e" text-anchor="start" style="white-space: pre;" direction="ltr" dominant-baseline="text-before-edge">int</text></g><g stroke-linecap="round"><g transform="translate(133.0411202604385 1025.2750727835337) rotate(0 192.10774053474267 -0.7279906775653444)"><path d="M0 0 C83.9 -0.32, 167.8 -0.64, 384.22 -1.46 M0 0 C102.26 -0.39, 204.52 -0.78, 384.22 -1.46" stroke="#1e1e1e" stroke-width="1" fill="none"></path></g></g><mask></mask><g stroke-linecap="round"><g transform="translate(123.80808844585346 982.1643958985491) rotate(0 196.3395528978856 0.8108528500319494)"><path d="M0 0 C97.83 0.4, 195.65 0.81, 392.68 1.62 M0 0 C101.29 0.42, 202.59 0.84, 392.68 1.62" stroke="#1e1e1e" stroke-width="1" fill="none"></path></g></g><mask></mask><g transform="translate(136.93015360722353 990.575845882954) rotate(0 56.119964599609375 12.5)"><text x="0" y="0" font-family="Virgil, Segoe UI Emoji" font-size="20px" fill="#1e1e1e" text-anchor="start" style="white-space: pre;" direction="ltr" dominant-baseline="text-before-edge">FK id_area</text></g><g transform="translate(173.86225151456375 1035.0297516292171) rotate(0 24.119979858398438 12.5)"><text x="0" y="0" font-family="Virgil, Segoe UI Emoji" font-size="20px" fill="#1e1e1e" text-anchor="start" style="white-space: pre;" direction="ltr" dominant-baseline="text-before-edge">tema</text></g><g transform="translate(456.2389675172081 1031.9520939250215) rotate(0 27.249969482421875 12.5)"><text x="0" y="0" font-family="Virgil, Segoe UI Emoji" font-size="20px" fill="#1e1e1e" text-anchor="start" style="white-space: pre;" direction="ltr" dominant-baseline="text-before-edge">string</text></g><g transform="translate(168.5545723000517 1080.2925461726518) rotate(0 58.849952697753906 12.5)"><text x="0" y="0" font-family="Virgil, Segoe UI Emoji" font-size="20px" fill="#1e1e1e" text-anchor="start" style="white-space: pre;" direction="ltr" dominant-baseline="text-before-edge">created_at</text></g><g transform="translate(167.02556694531097 1119.0524258278424) rotate(0 60.359947204589844 12.5)"><text x="0" y="0" font-family="Virgil, Segoe UI Emoji" font-size="20px" fill="#1e1e1e" text-anchor="start" style="white-space: pre;" direction="ltr" dominant-baseline="text-before-edge">updated_at</text></g><g transform="translate(453.6740233533472 1078.468481005907) rotate(0 23.47998046875 12.5)"><text x="0" y="0" font-family="Virgil, Segoe UI Emoji" font-size="20px" fill="#1e1e1e" text-anchor="start" style="white-space: pre;" direction="ltr" dominant-baseline="text-before-edge">date</text></g><g stroke-linecap="round"><g transform="translate(128.72120883417307 1114.384249927014) rotate(0 188.47390464064756 -1.667332987806276)"><path d="M0 0 C98.08 -0.87, 196.17 -1.74, 376.95 -3.33 M0 0 C144.17 -1.28, 288.34 -2.55, 376.95 -3.33" stroke="#1e1e1e" stroke-width="1" fill="none"></path></g></g><mask></mask><g stroke-linecap="round"><g transform="translate(130.0379475270159 1070.972474642886) rotate(0 191.96784559082437 -1.1682005355423826)"><path d="M0 0 C85.1 -0.52, 170.21 -1.04, 383.94 -2.34 M0 0 C141.62 -0.86, 283.25 -1.72, 383.94 -2.34" stroke="#1e1e1e" stroke-width="1" fill="none"></path></g></g><mask></mask><g transform="translate(454.9907118177446 1119.9447954899947) rotate(0 23.47998046875 12.5)"><text x="0" y="0" font-family="Virgil, Segoe UI Emoji" font-size="20px" fill="#1e1e1e" text-anchor="start" style="white-space: pre;" direction="ltr" dominant-baseline="text-before-edge">date</text></g><g stroke-linecap="round" transform="translate(1129.633807739891 399.09946283807994) rotate(0 201.01336510521503 146.24276078070216)"><path d="M0 0 C87.02 0.47, 172.27 -0.24, 402.03 0 M0 0 C128.53 1.83, 255.66 1.98, 402.03 0 M402.03 0 C399.96 98.14, 400.81 196.13, 402.03 292.49 M402.03 0 C400.05 71.35, 401.03 141.69, 402.03 292.49 M402.03 292.49 C309.78 292.84, 217.74 292.43, 0 292.49 M402.03 292.49 C306.36 292.76, 211.01 292.71, 0 292.49 M0 292.49 C-0.76 188.89, -1.31 84.89, 0 0 M0 292.49 C1.6 186.92, 1.66 82.17, 0 0" stroke="#1e1e1e" stroke-width="2" fill="none"></path></g><g transform="translate(1237.679980584003 409.7932964266496) rotate(0 94.69991302490234 12.5)"><text x="0" y="0" font-family="Virgil, Segoe UI Emoji" font-size="20px" fill="#1e1e1e" text-anchor="start" style="white-space: pre;" direction="ltr" dominant-baseline="text-before-edge">pregunta_encuesta</text></g><g transform="translate(1151.2913758888521 450.34418593596126) rotate(0 25.619979858398438 12.5)"><text x="0" y="0" font-family="Virgil, Segoe UI Emoji" font-size="20px" fill="#1e1e1e" text-anchor="start" style="white-space: pre;" direction="ltr" dominant-baseline="text-before-edge">PK id</text></g><g stroke-linecap="round"><g transform="translate(1132.183137479987 444.4688889555256) rotate(0 199.29932030506006 -1.5126544024961959)"><path d="M0 0 C115.08 -0.87, 230.16 -1.75, 398.6 -3.03 M0 0 C121.29 -0.92, 242.58 -1.84, 398.6 -3.03" stroke="#1e1e1e" stroke-width="2" fill="none"></path></g></g><mask></mask><g transform="translate(1465.0265182275825 531.7195801029538) rotate(0 12.509986877441406 12.5)"><text x="0" y="0" font-family="Virgil, Segoe UI Emoji" font-size="20px" fill="#1e1e1e" text-anchor="start" style="white-space: pre;" direction="ltr" dominant-baseline="text-before-edge">int</text></g><g transform="translate(1467.3965086719802 452.5695069479848) rotate(0 12.509986877441406 12.5)"><text x="0" y="0" font-family="Virgil, Segoe UI Emoji" font-size="20px" fill="#1e1e1e" text-anchor="start" style="white-space: pre;" direction="ltr" dominant-baseline="text-before-edge">int</text></g><g transform="translate(1458.7994163842727 485.9702681952032) rotate(0 7.8799896240234375 12.5)"><text x="0" y="0" font-family="Virgil, Segoe UI Emoji" font-size="20px" fill="#1e1e1e" text-anchor="start" style="white-space: pre;" direction="ltr" dominant-baseline="text-before-edge">id</text></g><g stroke-linecap="round"><g transform="translate(1138.5552777495723 482.9755107438814) rotate(0 192.10774053474267 -0.7279906775653444)"><path d="M0 0 C127.89 -0.48, 255.78 -0.97, 384.22 -1.46 M0 0 C93.11 -0.35, 186.21 -0.71, 384.22 -1.46" stroke="#1e1e1e" stroke-width="1" fill="none"></path></g></g><mask></mask><g stroke-linecap="round"><g transform="translate(1133.677769100469 520.864833858897) rotate(0 196.3395528978856 0.8108528500319494)"><path d="M0 0 C143.5 0.59, 286.99 1.19, 392.68 1.62 M0 0 C127.04 0.52, 254.07 1.05, 392.68 1.62" stroke="#1e1e1e" stroke-width="1" fill="none"></path></g></g><mask></mask><g transform="translate(1146.7998342618391 529.2762838433018) rotate(0 75.38993835449219 12.5)"><text x="0" y="0" font-family="Virgil, Segoe UI Emoji" font-size="20px" fill="#1e1e1e" text-anchor="start" style="white-space: pre;" direction="ltr" dominant-baseline="text-before-edge">FK pregunta_id</text></g><g transform="translate(1144.7525617122537 489.82491233343444) rotate(0 77.06993865966797 12.5)"><text x="0" y="0" font-family="Virgil, Segoe UI Emoji" font-size="20px" fill="#1e1e1e" text-anchor="start" style="white-space: pre;" direction="ltr" dominant-baseline="text-before-edge">FK encuesta_id</text></g><g stroke-linecap="round"><g transform="translate(1139.7081836060784 562.7547321457148) rotate(0 192.10774053474267 -0.7279906775653444)"><path d="M0 0 C85.72 -0.32, 171.45 -0.65, 384.22 -1.46 M0 0 C140.48 -0.53, 280.96 -1.06, 384.22 -1.46" stroke="#1e1e1e" stroke-width="1" fill="none"></path></g></g><mask></mask><g transform="translate(1184.3764090036975 569.6041337352679) rotate(0 49.029945373535156 12.5)"><text x="0" y="0" font-family="Virgil, Segoe UI Emoji" font-size="20px" fill="#1e1e1e" text-anchor="start" style="white-space: pre;" direction="ltr" dominant-baseline="text-before-edge">respuesta</text></g><g transform="translate(1466.7531250063419 566.5264760310723) rotate(0 27.249969482421875 12.5)"><text x="0" y="0" font-family="Virgil, Segoe UI Emoji" font-size="20px" fill="#1e1e1e" text-anchor="start" style="white-space: pre;" direction="ltr" dominant-baseline="text-before-edge">string</text></g><g transform="translate(1184.587650298606 615.6100055335882) rotate(0 58.849952697753906 12.5)"><text x="0" y="0" font-family="Virgil, Segoe UI Emoji" font-size="20px" fill="#1e1e1e" text-anchor="start" style="white-space: pre;" direction="ltr" dominant-baseline="text-before-edge">created_at</text></g><g transform="translate(1184.0079561694731 655.3191783077808) rotate(0 60.359947204589844 12.5)"><text x="0" y="0" font-family="Virgil, Segoe UI Emoji" font-size="20px" fill="#1e1e1e" text-anchor="start" style="white-space: pre;" direction="ltr" dominant-baseline="text-before-edge">updated_at</text></g><g transform="translate(1469.7071013519014 613.7859403668432) rotate(0 23.47998046875 12.5)"><text x="0" y="0" font-family="Virgil, Segoe UI Emoji" font-size="20px" fill="#1e1e1e" text-anchor="start" style="white-space: pre;" direction="ltr" dominant-baseline="text-before-edge">date</text></g><g stroke-linecap="round"><g transform="translate(1144.7542868327273 649.7017092879504) rotate(0 188.47390464064756 -1.667332987806276)"><path d="M0 0 C105.88 -0.94, 211.76 -1.87, 376.95 -3.33 M0 0 C149.21 -1.32, 298.43 -2.64, 376.95 -3.33" stroke="#1e1e1e" stroke-width="1" fill="none"></path></g></g><mask></mask><g stroke-linecap="round"><g transform="translate(1146.0710255255701 606.2899340038222) rotate(0 191.96784559082437 -1.1682005355423826)"><path d="M0 0 C97.65 -0.59, 195.29 -1.19, 383.94 -2.34 M0 0 C135.04 -0.82, 270.08 -1.64, 383.94 -2.34" stroke="#1e1e1e" stroke-width="1" fill="none"></path></g></g><mask></mask><g transform="translate(1471.0237898162989 655.2622548509306) rotate(0 23.47998046875 12.5)"><text x="0" y="0" font-family="Virgil, Segoe UI Emoji" font-size="20px" fill="#1e1e1e" text-anchor="start" style="white-space: pre;" direction="ltr" dominant-baseline="text-before-edge">date</text></g><g stroke-linecap="round" transform="translate(225.39790945784154 419.72640934809954) rotate(0 142.86416959267612 106.08910201341394)"><path d="M0 0 C70.35 1.51, 142.28 -0.89, 285.73 0 M0 0 C99.73 -1.11, 201.01 -1.21, 285.73 0 M285.73 0 C285.08 44.98, 283.21 90.51, 285.73 212.18 M285.73 0 C283.75 45.01, 284.04 88.24, 285.73 212.18 M285.73 212.18 C223.92 209.26, 157.93 209.67, 0 212.18 M285.73 212.18 C220.73 210.79, 156.38 210.21, 0 212.18 M0 212.18 C0.32 131.69, -0.45 47.85, 0 0 M0 212.18 C-1.01 150.87, -0.98 89.57, 0 0" stroke="#1e1e1e" stroke-width="2" fill="none"></path></g><g transform="translate(286.99791556135716 429.9264062963417) rotate(0 23.1099853515625 12.5)"><text x="0" y="0" font-family="Virgil, Segoe UI Emoji" font-size="20px" fill="#1e1e1e" text-anchor="start" style="white-space: pre;" direction="ltr" dominant-baseline="text-before-edge">area</text></g><g transform="translate(244.59792166487279 474.7263940893105) rotate(0 25.619979858398438 12.5)"><text x="0" y="0" font-family="Virgil, Segoe UI Emoji" font-size="20px" fill="#1e1e1e" text-anchor="start" style="white-space: pre;" direction="ltr" dominant-baseline="text-before-edge">PK id</text></g><g transform="translate(275.79793387190404 508.76614505752684) rotate(0 23.1099853515625 12.5)"><text x="0" y="0" font-family="Virgil, Segoe UI Emoji" font-size="20px" fill="#1e1e1e" text-anchor="start" style="white-space: pre;" direction="ltr" dominant-baseline="text-before-edge">area</text></g><g stroke-linecap="round"><g transform="translate(226.99794607893529 464.326369675248) rotate(0 140.7200469336937 -1.5227932418020202)"><path d="M0 0 C101.01 -1.09, 202.02 -2.19, 281.44 -3.05 M0 0 C62.47 -0.68, 124.94 -1.35, 281.44 -3.05" stroke="#1e1e1e" stroke-width="2" fill="none"></path></g></g><mask></mask><g stroke-linecap="round"><g transform="translate(228.16494004059558 505.25349741198886) rotate(0 137.74837444597665 -0.37426763819945563)"><path d="M0 0 C89.9 -0.24, 179.8 -0.49, 275.5 -0.75 M0 0 C60.27 -0.16, 120.53 -0.33, 275.5 -0.75" stroke="#1e1e1e" stroke-width="1" fill="none"></path></g></g><mask></mask><g transform="translate(439.7404858485517 507.51881709904217) rotate(0 27.249969482421875 12.5)"><text x="0" y="0" font-family="Virgil, Segoe UI Emoji" font-size="20px" fill="#1e1e1e" text-anchor="start" style="white-space: pre;" direction="ltr" dominant-baseline="text-before-edge">string</text></g><g transform="translate(441.23319153009123 479.7163841526668) rotate(0 12.509986877441406 12.5)"><text x="0" y="0" font-family="Virgil, Segoe UI Emoji" font-size="20px" fill="#1e1e1e" text-anchor="start" style="white-space: pre;" direction="ltr" dominant-baseline="text-before-edge">int</text></g><g transform="translate(273.5553492921352 551.6483697306468) rotate(0 58.849952697753906 12.5)"><text x="0" y="0" font-family="Virgil, Segoe UI Emoji" font-size="20px" fill="#1e1e1e" text-anchor="start" style="white-space: pre;" direction="ltr" dominant-baseline="text-before-edge">created_at</text></g><g transform="translate(274.5654674816714 594.2344781327266) rotate(0 60.359947204589844 12.5)"><text x="0" y="0" font-family="Virgil, Segoe UI Emoji" font-size="20px" fill="#1e1e1e" text-anchor="start" style="white-space: pre;" direction="ltr" dominant-baseline="text-before-edge">updated_at</text></g><g stroke-linecap="round"><g transform="translate(232.62997399705995 583.2072160188314) rotate(0 137.25933076680644 0.149934139113725)"><path d="M0 0 C88.98 0.1, 177.95 0.19, 274.52 0.3 M0 0 C76.8 0.08, 153.6 0.17, 274.52 0.3" stroke="#1e1e1e" stroke-width="1" fill="none"></path></g></g><mask></mask><g stroke-linecap="round"><g transform="translate(230.63345633604303 547.2699742813417) rotate(0 137.10934807375037 -1.4473625988825347)"><path d="M0 0 C92.83 -0.98, 185.65 -1.96, 274.22 -2.89 M0 0 C102.91 -1.09, 205.83 -2.17, 274.22 -2.89" stroke="#1e1e1e" stroke-width="1" fill="none"></path></g></g><mask></mask><g transform="translate(438.9919648492757 550.1851708054286) rotate(0 23.47998046875 12.5)"><text x="0" y="0" font-family="Virgil, Segoe UI Emoji" font-size="20px" fill="#1e1e1e" text-anchor="start" style="white-space: pre;" direction="ltr" dominant-baseline="text-before-edge">date</text></g><g transform="translate(438.24344384999966 591.3544539590172) rotate(0 23.47998046875 12.5)"><text x="0" y="0" font-family="Virgil, Segoe UI Emoji" font-size="20px" fill="#1e1e1e" text-anchor="start" style="white-space: pre;" direction="ltr" dominant-baseline="text-before-edge">date</text></g><g stroke-linecap="round" transform="translate(662.8056827678174 10) rotate(0 156.38707891088688 151.32843869254745)"><path d="M0 0 C118.87 0.85, 238.48 -1.17, 312.77 0 M0 0 C105.84 2.38, 212.32 1.95, 312.77 0 M312.77 0 C312.71 65.32, 310.81 133.04, 312.77 302.66 M312.77 0 C313.81 85.68, 313.16 172.47, 312.77 302.66 M312.77 302.66 C234.67 304.44, 154.08 303.06, 0 302.66 M312.77 302.66 C205.19 304.22, 98.35 304.62, 0 302.66 M0 302.66 C-0.51 205.19, -2.56 107.56, 0 0 M0 302.66 C-0.84 218.83, -0.14 135.96, 0 0" stroke="#1e1e1e" stroke-width="2" fill="none"></path></g><g transform="translate(774.7624488001293 20.199966430664062) rotate(0 26.309967041015625 12.5)"><text x="0" y="0" font-family="Virgil, Segoe UI Emoji" font-size="20px" fill="#1e1e1e" text-anchor="start" style="white-space: pre;" direction="ltr" dominant-baseline="text-before-edge">users</text></g><g transform="translate(681.2057071818799 67.40000915527344) rotate(0 25.619979858398438 12.5)"><text x="0" y="0" font-family="Virgil, Segoe UI Emoji" font-size="20px" fill="#1e1e1e" text-anchor="start" style="white-space: pre;" direction="ltr" dominant-baseline="text-before-edge">PK id</text></g><g transform="translate(715.5957769237414 125.52901465949822) rotate(0 23.139984130859375 12.5)"><text x="0" y="0" font-family="Virgil, Segoe UI Emoji" font-size="20px" fill="#1e1e1e" text-anchor="start" style="white-space: pre;" direction="ltr" dominant-baseline="text-before-edge">name</text></g><g stroke-linecap="round"><g transform="translate(664.4057193889112 54.59996032714844) rotate(0 154.2883305665822 -1.8973726221452694)"><path d="M0 0 C92.63 -1.14, 185.26 -2.28, 308.58 -3.79 M0 0 C119.73 -1.47, 239.46 -2.94, 308.58 -3.79" stroke="#1e1e1e" stroke-width="2" fill="none"></path></g></g><mask></mask><g transform="translate(711.2880667520571 165.19867437906373) rotate(0 23.28997802734375 12.5)"><text x="0" y="0" font-family="Virgil, Segoe UI Emoji" font-size="20px" fill="#1e1e1e" text-anchor="start" style="white-space: pre;" direction="ltr" dominant-baseline="text-before-edge">email</text></g><g transform="translate(902.6105900767593 95.23415024278393) rotate(0 12.509986877441406 12.5)"><text x="0" y="0" font-family="Virgil, Segoe UI Emoji" font-size="20px" fill="#1e1e1e" text-anchor="start" style="white-space: pre;" direction="ltr" dominant-baseline="text-before-edge">int</text></g><g transform="translate(898.8252944637647 70.39476660659534) rotate(0 12.509986877441406 12.5)"><text x="0" y="0" font-family="Virgil, Segoe UI Emoji" font-size="20px" fill="#1e1e1e" text-anchor="start" style="white-space: pre;" direction="ltr" dominant-baseline="text-before-edge">int</text></g><g transform="translate(900.6141104961494 128.17655836813776) rotate(0 27.249969482421875 12.5)"><text x="0" y="0" font-family="Virgil, Segoe UI Emoji" font-size="20px" fill="#1e1e1e" text-anchor="start" style="white-space: pre;" direction="ltr" dominant-baseline="text-before-edge">string</text></g><g transform="translate(897.0203667699566 162.1172939372468) rotate(0 27.249969482421875 12.5)"><text x="0" y="0" font-family="Virgil, Segoe UI Emoji" font-size="20px" fill="#1e1e1e" text-anchor="start" style="white-space: pre;" direction="ltr" dominant-baseline="text-before-edge">string</text></g><g stroke-linecap="round"><g transform="translate(677.4043431110974 193.86154645268334) rotate(0 143.64889874400052 -1.0980344405045912)"><path d="M0 0 C74.93 -0.57, 149.85 -1.15, 287.3 -2.2 M0 0 C84.92 -0.65, 169.84 -1.3, 287.3 -2.2" stroke="#1e1e1e" stroke-width="1" fill="none"></path></g></g><mask></mask><g stroke-linecap="round"><g transform="translate(678.0032100215192 160.12072670318662) rotate(0 143.2496566527712 -1.4973977658644344)"><path d="M0 0 C109.29 -1.14, 218.57 -2.28, 286.5 -2.99 M0 0 C68.24 -0.71, 136.48 -1.43, 286.5 -2.99" stroke="#1e1e1e" stroke-width="1" fill="none"></path></g></g><mask></mask><g stroke-linecap="round"><g transform="translate(675.0084525701975 125.18180091681586) rotate(0 143.2496566527712 -1.4973977658644344)"><path d="M0 0 C92.51 -0.97, 185.02 -1.93, 286.5 -2.99 M0 0 C78.76 -0.82, 157.53 -1.65, 286.5 -2.99" stroke="#1e1e1e" stroke-width="1" fill="none"></path></g></g><mask></mask><g stroke-linecap="round"><g transform="translate(675.0084525701975 98.2289076941056) rotate(0 143.2496566527712 -1.4973977658644344)"><path d="M0 0 C84.25 -0.88, 168.49 -1.76, 286.5 -2.99 M0 0 C98.49 -1.03, 196.98 -2.06, 286.5 -2.99" stroke="#1e1e1e" stroke-width="1" fill="none"></path></g></g><mask></mask><g transform="translate(682.0451861235802 100.13893534466843) rotate(0 56.119964599609375 12.5)"><text x="0" y="0" font-family="Virgil, Segoe UI Emoji" font-size="20px" fill="#1e1e1e" text-anchor="start" style="white-space: pre;" direction="ltr" dominant-baseline="text-before-edge">FK id_area</text></g><g transform="translate(712.6344302608981 199.3392469769251) rotate(0 44.0799560546875 12.5)"><text x="0" y="0" font-family="Virgil, Segoe UI Emoji" font-size="20px" fill="#1e1e1e" text-anchor="start" style="white-space: pre;" direction="ltr" dominant-baseline="text-before-edge">password</text></g><g transform="translate(897.6193149644207 196.25786653510818) rotate(0 27.249969482421875 12.5)"><text x="0" y="0" font-family="Virgil, Segoe UI Emoji" font-size="20px" fill="#1e1e1e" text-anchor="start" style="white-space: pre;" direction="ltr" dominant-baseline="text-before-edge">string</text></g><g stroke-linecap="round"><g transform="translate(678.0032913055616 228.0021190505447) rotate(0 143.64889874400052 -1.0980344405045912)"><path d="M0 0 C88.78 -0.68, 177.55 -1.36, 287.3 -2.2 M0 0 C102.95 -0.79, 205.91 -1.57, 287.3 -2.2" stroke="#1e1e1e" stroke-width="1" fill="none"></path></g></g><mask></mask><g transform="translate(706.9556195827176 231.27801751306606) rotate(0 58.849952697753906 12.5)"><text x="0" y="0" font-family="Virgil, Segoe UI Emoji" font-size="20px" fill="#1e1e1e" text-anchor="start" style="white-space: pre;" direction="ltr" dominant-baseline="text-before-edge">created_at</text></g><g transform="translate(708.4247622009929 275.8684159128978) rotate(0 60.359947204589815 12.5)"><text x="0" y="0" font-family="Virgil, Segoe UI Emoji" font-size="20px" fill="#1e1e1e" text-anchor="start" style="white-space: pre;" direction="ltr" dominant-baseline="text-before-edge">updated_at</text></g><g stroke-linecap="round"><g transform="translate(670.4978487118851 263.8390279144526) rotate(0 146.779660470313 -1.3532929163632161)"><path d="M0 0 C69.57 -0.64, 139.13 -1.28, 293.56 -2.71 M0 0 C103.11 -0.95, 206.21 -1.9, 293.56 -2.71" stroke="#1e1e1e" stroke-width="1" fill="none"></path></g></g><mask></mask><g transform="translate(900.9111666225158 228.8126927032979) rotate(0 23.47998046875 12.5)"><text x="0" y="0" font-family="Virgil, Segoe UI Emoji" font-size="20px" fill="#1e1e1e" text-anchor="start" style="white-space: pre;" direction="ltr" dominant-baseline="text-before-edge">date</text></g><g transform="translate(907.1776797296975 268.9798117436847) rotate(0 23.47998046875 12.5)"><text x="0" y="0" font-family="Virgil, Segoe UI Emoji" font-size="20px" fill="#1e1e1e" text-anchor="start" style="white-space: pre;" direction="ltr" dominant-baseline="text-before-edge">date</text></g><g stroke-linecap="round" transform="translate(654.3433142027247 895.4366613146979) rotate(0 201.01336510521503 187.48532445128376)"><path d="M0 0 C108.04 1.06, 214.88 1.19, 402.03 0 M0 0 C87.8 1.65, 174.23 1.45, 402.03 0 M402.03 0 C400.94 148.21, 402.08 296.74, 402.03 374.97 M402.03 0 C403.59 114.58, 403.87 229.76, 402.03 374.97 M402.03 374.97 C279.11 372.62, 154.94 372.63, 0 374.97 M402.03 374.97 C310.82 373.06, 219.66 373.6, 0 374.97 M0 374.97 C-0.53 279.43, -0.12 184.73, 0 0 M0 374.97 C1.3 243.43, 0.97 110.85, 0 0" stroke="#1e1e1e" stroke-width="2" fill="none"></path></g><g transform="translate(807.5505010143163 905.3745707392981) rotate(0 42.37995910644531 12.5)"><text x="0" y="0" font-family="Virgil, Segoe UI Emoji" font-size="20px" fill="#1e1e1e" text-anchor="start" style="white-space: pre;" direction="ltr" dominant-baseline="text-before-edge">pregunta</text></g><g transform="translate(675.0515892326837 946.6813844125792) rotate(0 25.619979858398438 12.5)"><text x="0" y="0" font-family="Virgil, Segoe UI Emoji" font-size="20px" fill="#1e1e1e" text-anchor="start" style="white-space: pre;" direction="ltr" dominant-baseline="text-before-edge">PK id</text></g><g stroke-linecap="round"><g transform="translate(655.9433508238185 940.8060874321435) rotate(0 199.29932030506006 -1.5126544024961959)"><path d="M0 0 C109.04 -0.83, 218.08 -1.66, 398.6 -3.03 M0 0 C109.24 -0.83, 218.48 -1.66, 398.6 -3.03" stroke="#1e1e1e" stroke-width="2" fill="none"></path></g></g><mask></mask><g transform="translate(988.7867315714141 986.0567785795718) rotate(0 12.509986877441406 12.5)"><text x="0" y="0" font-family="Virgil, Segoe UI Emoji" font-size="20px" fill="#1e1e1e" text-anchor="start" style="white-space: pre;" direction="ltr" dominant-baseline="text-before-edge">int</text></g><g transform="translate(991.1567220158117 948.9067054246027) rotate(0 12.509986877441406 12.5)"><text x="0" y="0" font-family="Virgil, Segoe UI Emoji" font-size="20px" fill="#1e1e1e" text-anchor="start" style="white-space: pre;" direction="ltr" dominant-baseline="text-before-edge">int</text></g><g transform="translate(987.5596297281043 1061.6486800026269) rotate(0 12.509986877441406 12.5)"><text x="0" y="0" font-family="Virgil, Segoe UI Emoji" font-size="20px" fill="#1e1e1e" text-anchor="start" style="white-space: pre;" direction="ltr" dominant-baseline="text-before-edge">int</text></g><g stroke-linecap="round"><g transform="translate(667.3154910934038 1058.653922551305) rotate(0 192.10774053474267 -0.7279906775653444)"><path d="M0 0 C145.66 -0.55, 291.33 -1.1, 384.22 -1.46 M0 0 C141.64 -0.54, 283.27 -1.07, 384.22 -1.46" stroke="#1e1e1e" stroke-width="1" fill="none"></path></g></g><mask></mask><g stroke-linecap="round"><g transform="translate(658.0824592788188 975.2020323355149) rotate(0 196.3395528978856 0.8108528500319494)"><path d="M0 0 C129.65 0.54, 259.3 1.07, 392.68 1.62 M0 0 C104.47 0.43, 208.93 0.86, 392.68 1.62" stroke="#1e1e1e" stroke-width="1" fill="none"></path></g></g><mask></mask><g transform="translate(671.2045244401888 983.6134823199197) rotate(0 56.119964599609375 12.5)"><text x="0" y="0" font-family="Virgil, Segoe UI Emoji" font-size="20px" fill="#1e1e1e" text-anchor="start" style="white-space: pre;" direction="ltr" dominant-baseline="text-before-edge">FK id_area</text></g><g transform="translate(673.5127750560853 1065.503324140858) rotate(0 126.6698989868164 12.5)"><text x="0" y="0" font-family="Virgil, Segoe UI Emoji" font-size="20px" fill="#1e1e1e" text-anchor="start" style="white-space: pre;" direction="ltr" dominant-baseline="text-before-edge">FK id_metrica_evaluacion</text></g><g stroke-linecap="round"><g transform="translate(663.4683969499099 1099.4331439531384) rotate(0 192.10774053474267 -0.7279906775653444)"><path d="M0 0 C138.78 -0.53, 277.56 -1.05, 384.22 -1.46 M0 0 C127.29 -0.48, 254.58 -0.96, 384.22 -1.46" stroke="#1e1e1e" stroke-width="1" fill="none"></path></g></g><mask></mask><g transform="translate(708.136622347529 1106.2825455426914) rotate(0 38.789955139160156 12.5)"><text x="0" y="0" font-family="Virgil, Segoe UI Emoji" font-size="20px" fill="#1e1e1e" text-anchor="start" style="white-space: pre;" direction="ltr" dominant-baseline="text-before-edge">opciones</text></g><g transform="translate(990.5133383501734 1103.2048878384958) rotate(0 27.249969482421875 12.5)"><text x="0" y="0" font-family="Virgil, Segoe UI Emoji" font-size="20px" fill="#1e1e1e" text-anchor="start" style="white-space: pre;" direction="ltr" dominant-baseline="text-before-edge">string</text></g><g stroke-linecap="round"><g transform="translate(661.9295534223127 1140.2123360039727) rotate(0 192.10774053474267 -0.7279906775653444)"><path d="M0 0 C118.24 -0.45, 236.47 -0.9, 384.22 -1.46 M0 0 C87.09 -0.33, 174.18 -0.66, 384.22 -1.46" stroke="#1e1e1e" stroke-width="1" fill="none"></path></g></g><mask></mask><g transform="translate(706.5977788199318 1147.0617375935258) rotate(0 42.37995910644531 12.5)"><text x="0" y="0" font-family="Virgil, Segoe UI Emoji" font-size="20px" fill="#1e1e1e" text-anchor="start" style="white-space: pre;" direction="ltr" dominant-baseline="text-before-edge">pregunta</text></g><g transform="translate(988.9744948225762 1143.9840798893301) rotate(0 27.249969482421875 12.5)"><text x="0" y="0" font-family="Virgil, Segoe UI Emoji" font-size="20px" fill="#1e1e1e" text-anchor="start" style="white-space: pre;" direction="ltr" dominant-baseline="text-before-edge">string</text></g><g transform="translate(704.8518770985784 1193.374330471073) rotate(0 58.849952697753906 12.5)"><text x="0" y="0" font-family="Virgil, Segoe UI Emoji" font-size="20px" fill="#1e1e1e" text-anchor="start" style="white-space: pre;" direction="ltr" dominant-baseline="text-before-edge">created_at</text></g><g transform="translate(705.2214760884478 1233.0835032452658) rotate(0 60.359947204589844 12.5)"><text x="0" y="0" font-family="Virgil, Segoe UI Emoji" font-size="20px" fill="#1e1e1e" text-anchor="start" style="white-space: pre;" direction="ltr" dominant-baseline="text-before-edge">updated_at</text></g><g transform="translate(989.9713281518739 1191.550265304328) rotate(0 23.47998046875 12.5)"><text x="0" y="0" font-family="Virgil, Segoe UI Emoji" font-size="20px" fill="#1e1e1e" text-anchor="start" style="white-space: pre;" direction="ltr" dominant-baseline="text-before-edge">date</text></g><g stroke-linecap="round"><g transform="translate(665.0185136326998 1227.4660342254354) rotate(0 188.47390464064756 -1.667332987806276)"><path d="M0 0 C103.23 -0.91, 206.45 -1.83, 376.95 -3.33 M0 0 C141.42 -1.25, 282.84 -2.5, 376.95 -3.33" stroke="#1e1e1e" stroke-width="1" fill="none"></path></g></g><mask></mask><g stroke-linecap="round"><g transform="translate(666.3352523255426 1184.0542589413071) rotate(0 191.96784559082437 -1.1682005355423826)"><path d="M0 0 C108.2 -0.66, 216.4 -1.32, 383.94 -2.34 M0 0 C115.15 -0.7, 230.31 -1.4, 383.94 -2.34" stroke="#1e1e1e" stroke-width="1" fill="none"></path></g></g><mask></mask><g transform="translate(991.2880166162713 1233.0265797884156) rotate(0 23.47998046875 12.5)"><text x="0" y="0" font-family="Virgil, Segoe UI Emoji" font-size="20px" fill="#1e1e1e" text-anchor="start" style="white-space: pre;" direction="ltr" dominant-baseline="text-before-edge">date</text></g><g transform="translate(987.5596297281043 1021.3072743095132) rotate(0 12.509986877441406 12.5)"><text x="0" y="0" font-family="Virgil, Segoe UI Emoji" font-size="20px" fill="#1e1e1e" text-anchor="start" style="white-space: pre;" direction="ltr" dominant-baseline="text-before-edge">int</text></g><g stroke-linecap="round"><g transform="translate(667.3154910934038 1018.3125168581914) rotate(0 192.10774053474267 -0.7279906775653444)"><path d="M0 0 C151.81 -0.58, 303.61 -1.15, 384.22 -1.46 M0 0 C117.75 -0.45, 235.49 -0.89, 384.22 -1.46" stroke="#1e1e1e" stroke-width="1" fill="none"></path></g></g><mask></mask><g transform="translate(673.5127750560853 1025.1619184477445) rotate(0 57.12995910644531 12.5)"><text x="0" y="0" font-family="Virgil, Segoe UI Emoji" font-size="20px" fill="#1e1e1e" text-anchor="start" style="white-space: pre;" direction="ltr" dominant-baseline="text-before-edge">FK id_tema</text></g><g stroke-linecap="round"><g transform="translate(667.0660264911294 113.50718543944052) rotate(0 -40.10889758276511 184.6010315858411)"><path d="M0 -0.07 C-22.37 -0.83, -44.75 -1.58, -72.2 -2.5 M0 -0.07 C-25.3 -0.92, -50.59 -1.77, -72.2 -2.5 M-72.2 -2.5 C-75.12 133.98, -78.05 270.46, -80.22 371.7 M-72.2 -2.5 C-74.26 93.71, -76.32 189.92, -80.22 371.7" stroke="#1e1e1e" stroke-width="1" fill="none"></path></g></g><mask></mask><g stroke-linecap="round"><g transform="translate(220.33706328265424 485.23919427473896) rotate(0.0119815148561011 -105.06101465625628 255.63862007897546)"><path d="M0 0 C-58.96 -0.91, -117.92 -1.82, -202.22 -3.13 M0 0 C-77.46 -1.2, -154.91 -2.39, -202.22 -3.13 M-202.22 -3.13 C-204.1 120.26, -205.99 243.64, -210.12 514.4 M-202.22 -3.13 C-204.52 147.44, -206.82 298, -210.12 514.4" stroke="#1e1e1e" stroke-width="1" fill="none"></path></g></g><mask></mask><g stroke-linecap="round"><g transform="translate(10.000078291084321 998.79268542999) rotate(0.0119815148561011 54.92786105596241 -0.3801322861920653)"><path d="M0 0 C27.62 -0.19, 55.24 -0.38, 109.86 -0.76 M0 0 C31.84 -0.22, 63.67 -0.44, 109.86 -0.76" stroke="#1e1e1e" stroke-width="1" fill="none"></path></g></g><mask></mask><g stroke-linecap="round"><g transform="translate(1057.1431126600266 1079.9629463219726) rotate(0 32.915510202788425 -63.38177005244023)"><path d="M0 0 C19.97 -0.26, 39.94 -0.52, 64.85 -0.84 M0 0 C20.35 -0.26, 40.71 -0.53, 64.85 -0.84 M64.85 -0.84 C65.09 -31.94, 65.33 -63.03, 65.83 -126.76 M64.85 -0.84 C65.09 -31.97, 65.33 -63.09, 65.83 -126.76" stroke="#1e1e1e" stroke-width="1" fill="none"></path></g></g><mask></mask><g stroke-linecap="round"><g transform="translate(1122.6493673799139 952.9688250167293) rotate(0 14.966448286780178 -0.14123120981093962)"><path d="M0 0 C11.27 -0.11, 22.54 -0.21, 29.93 -0.28 M0 0 C8.05 -0.08, 16.1 -0.15, 29.93 -0.28" stroke="#1e1e1e" stroke-width="1" fill="none"></path></g></g><mask></mask><g stroke-linecap="round"><g transform="translate(583.3906654633363 959.9334876964724) rotate(0 33.28408214383387 38.735224817866424)"><path d="M0 0 C-0.4 22.08, -0.8 44.16, -1.4 77.47 M0 0 C-0.4 21.92, -0.79 43.83, -1.4 77.47 M-1.4 77.47 C16.26 77.3, 33.92 77.12, 67.97 76.79 M-1.4 77.47 C17.77 77.28, 36.95 77.09, 67.97 76.79" stroke="#1e1e1e" stroke-width="1" fill="none"></path></g></g><mask></mask><g stroke-linecap="round"><g transform="translate(583.6966067877338 960.118248509747) rotate(0 -30.51080850012181 1.2274480873409743)"><path d="M0 0 C-19.57 0.79, -39.15 1.57, -61.02 2.45 M0 0 C-16.23 0.65, -32.46 1.31, -61.02 2.45" stroke="#1e1e1e" stroke-width="1" fill="none"></path></g></g><mask></mask><g stroke-linecap="round"><g transform="translate(586.7082868045077 485.091715739992) rotate(0 -38.873923202047706 0.45136115404235966)"><path d="M0 0 C-29.78 0.35, -59.55 0.69, -77.75 0.9 M0 0 C-29.37 0.34, -58.74 0.68, -77.75 0.9" stroke="#1e1e1e" stroke-width="1" fill="none"></path></g></g><mask></mask><g stroke-linecap="round"><g transform="translate(1097.7712282401228 958.3559398269743) rotate(0 15.191431874672503 -205.00927083560305)"><path d="M0 0 C0.71 -134.66, 1.42 -269.33, 2.17 -410.02 M0 0 C0.59 -112.25, 1.19 -224.49, 2.17 -410.02 M2.17 -410.02 C12.25 -410.02, 22.34 -410.02, 30.38 -410.02 M2.17 -410.02 C11.23 -410.02, 20.29 -410.02, 30.38 -410.02" stroke="#1e1e1e" stroke-width="1" fill="none"></path></g></g><mask></mask><g stroke-linecap="round"><g transform="translate(1097.6756978606277 958.2871961349821) rotate(0 -20.12887640455301 0.4563229000045794)"><path d="M0 0 C-14.57 0.33, -29.14 0.66, -40.26 0.91 M0 0 C-15.34 0.35, -30.69 0.7, -40.26 0.91" stroke="#1e1e1e" stroke-width="1" fill="none"></path></g></g><mask></mask><g stroke-linecap="round"><g transform="translate(971.481788475855 479.29764453449684) rotate(0 30.87207113941031 15.968304723119445)"><path d="M0 0 C14.83 0, 29.67 0, 61.74 0 M0 0 C19.99 0, 39.98 0, 61.74 0 M61.74 0 C61.74 11.74, 61.74 23.47, 61.74 31.94 M61.74 0 C61.74 10.91, 61.74 21.82, 61.74 31.94" stroke="#1e1e1e" stroke-width="1" fill="none"></path></g></g><mask></mask><g stroke-linecap="round"><g transform="translate(1033.1393065108737 511.4219028355293) rotate(0 48.51218508594491 0.2760279411430133)"><path d="M0 0 C22.33 0.13, 44.65 0.25, 97.02 0.55 M0 0 C30.89 0.18, 61.78 0.35, 97.02 0.55" stroke="#1e1e1e" stroke-width="1" fill="none"></path></g></g><mask></mask><g stroke-linecap="round"><g transform="translate(605.8713134843111 495.20910430820163) rotate(0 23.80456407755014 253.4467090502962)"><path d="M0 0 C0.2 164.92, 0.4 329.83, 0.62 506.89 M0 0 C0.12 102.32, 0.25 204.63, 0.62 506.89 M0.62 506.89 C17.38 506.88, 34.14 506.87, 47.61 506.86 M0.62 506.89 C18.05 506.88, 35.49 506.87, 47.61 506.86" stroke="#1e1e1e" stroke-width="1" fill="none"></path></g></g><mask></mask><g stroke-linecap="round"><g transform="translate(605.7544792974562 494.95703957345586) rotate(0 -48.15194769775252 -0.26391648442239557)"><path d="M0 0 C-22.93 -0.13, -45.86 -0.25, -96.3 -0.53 M0 0 C-34.07 -0.19, -68.13 -0.37, -96.3 -0.53" stroke="#1e1e1e" stroke-width="1" fill="none"></path></g></g><mask></mask></svg>